<svg id="Layer_5" enable-background="new 0 0 62 62" height="512" viewBox="0 0 62 62" width="512" xmlns="http://www.w3.org/2000/svg">
<symbol id="Greek" viewBox="0 0 510 510">
<title>Greek</title>
  <g>
    <g>
      <g>
        <circle cx="31" cy="31" fill="#ccd1d9" r="30" />
      </g>
      <g>
        <path d="m7.04 12.95c-.03-.32-.04-.63-.04-.95 0-6.08 4.92-11 11-11 1.74 0 3.39.4 4.84 1.13 1.69.83 3.13 2.08 4.19 3.61-1.27.49-2.42 1.2-3.41 2.1-1.28-1.72-3.31-2.84-5.62-2.84-3.87 0-7 3.13-7 7s3.13 7 7 7c.81 0 1.58-.15 2.31-.4.32 1.33.88 2.56 1.64 3.65-1.23.48-2.55.75-3.95.75-1.76 0-3.42-.41-4.89-1.14-3.36-1.67-5.74-5-6.07-8.91z" fill="#a0d468" />
      </g>
      <g>
        <path d="m23.62 7.84c-2.22 2.01-3.62 4.92-3.62 8.16 0 .9.11 1.77.31 2.6-.73.25-1.5.4-2.31.4-3.87 0-7-3.13-7-7s3.13-7 7-7c2.31 0 4.34 1.12 5.62 2.84z" fill="#b4dd7f" />
      </g>
      <g>
        <path d="m27.03 5.74c1.23-.48 2.57-.74 3.97-.74 5.09 0 9.35 3.46 10.61 8.14-.67-.09-1.35-.14-2.05-.14-.73 0-1.43.09-2.11.26-1.07-2.5-3.55-4.26-6.45-4.26-3.87 0-7 3.13-7 7s3.13 7 7 7h.05c.13 1.39.61 2.73 1.4 3.89-.48.07-.96.11-1.45.11-3.76 0-7.07-1.88-9.05-4.75-.76-1.09-1.32-2.32-1.64-3.65-.2-.83-.31-1.7-.31-2.6 0-3.24 1.4-6.15 3.62-8.16.99-.9 2.14-1.61 3.41-2.1z" fill="#a0d468" />
      </g>
      <g>
        <path d="m31 23c-3.87 0-7-3.13-7-7s3.13-7 7-7c2.9 0 5.38 1.76 6.45 4.26-3.71.94-6.45 4.3-6.45 8.3v.59c0 .29.01.57.05.85-.02 0-.04 0-.05 0z" fill="#b4dd7f" />
      </g>
      <g>
        <path d="m35.18 33.22-4.78-2.05c-.26-.11-.55-.17-.84-.17h-.44c-1.17 0-2.12.95-2.12 2.12 0 .56.22 1.1.62 1.5l1.4 1.4c.63.63.98 1.48.98 2.36 0 .9-.72 1.62-1.62 1.62-.25 0-.5-.06-.72-.17l-4.11-2.05c-.92-.47-2.04-.29-2.78.45-.47.47-.75 1.1-.77 1.77-1.75 0-3.22-1.13-3.76-2.69-.64.44-1.41.69-2.24.69-2 0-3.64-1.47-3.94-3.39-1.8-.76-3.06-2.54-3.06-4.61 0-2.76 2.24-5 5-5 0-1.19.42-2.28 1.11-3.14 1.47.73 3.13 1.14 4.89 1.14 1.4 0 2.72-.27 3.95-.75 1.98 2.87 5.29 4.75 9.05 4.75.49 0 .97-.04 1.45-.11.07.13.17.26.26.39 1.33 1.77 2.16 3.82 2.47 5.94z" fill="#ff826e" />
      </g>
      <g>
        <circle cx="20" cy="30" fill="#fc6e51" r="3" />
      </g>
      <g>
        <path d="m49.73 46.55c.71.82.67 2.05-.09 2.81l-.18.18c-.81.81-2.11.81-2.92 0l-.22-.22c-.77-.77-1.97-.89-2.87-.28-.65.42-1.02 1.15-1.02 1.89 0 .24.04.48.12.72.06.17.09.35.09.52 0 .6-.34 1.18-.91 1.47l-.54.27c-1.19.59-2.64.07-3.18-1.14l-1.55-3.48 2.54-2.29 7.19-4.49z" fill="#cf9e76" />
      </g>
      <g>
        <path d="m35.18 33.22c.32 2.15.09 4.37-.69 6.47l-.49 1.31-6.57 6.57-6.38-4.78c-.66-.5-1.05-1.28-1.05-2.11v-.59c0-.03 0-.06 0-.09.02-.67.3-1.3.77-1.77.74-.74 1.86-.92 2.78-.45l4.11 2.05c.22.11.47.17.72.17.9 0 1.62-.72 1.62-1.62 0-.88-.35-1.73-.98-2.36l-1.4-1.4c-.4-.4-.62-.94-.62-1.5 0-1.17.95-2.12 2.12-2.12h.44c.29 0 .58.06.84.17z" fill="#cf9e76" />
      </g>
      <g>
        <path d="m34 41 5 6-2.54 2.29-7.46 6.71c-1.38 0-2.63-.56-3.54-1.46-.9-.91-1.46-2.16-1.46-3.54l3.43-3.43z" fill="#e6e9ed" />
      </g>
      <g>
        <path d="m41.61 13.14c3.44.45 6.53 2.05 8.87 4.38 2.79 2.8 4.52 6.66 4.52 10.92 0 2.66-.68 5.23-1.94 7.49-1.24 2.25-3.06 4.19-5.32 5.61l-1.55.97-7.19 4.49-5-6 .49-1.31c.78-2.1 1.01-4.32.69-6.47-.31-2.12-1.14-4.17-2.47-5.94-.09-.13-.19-.26-.26-.39-.79-1.16-1.27-2.5-1.4-3.89-.04-.28-.05-.56-.05-.85v-.59c0-4 2.74-7.36 6.45-8.3.68-.17 1.38-.26 2.11-.26.7 0 1.38.05 2.05.14z" fill="#dfb28b" />
      </g>
      <g>
        <path d="m48.89 21.81c1.33 1.88 2.11 4.16 2.11 6.63 0 3.97-2.01 7.6-5.38 9.7l-5.78 3.62-1.3-1.56c.7-2.22.93-4.52.71-6.77.5.35 1.09.57 1.75.57 1.66 0 3-1.34 3-3s-1.34-3-3-3c-1.13 0-2.1.63-2.61 1.55-.57-1.65-1.4-3.22-2.48-4.67-.59-.78-.91-1.75-.91-2.73v-.59c0-2.52 2.04-4.56 4.56-4.56 1.88 0 3.66.45 5.22 1.26l-.01.01c-1.04.47-1.77 1.51-1.77 2.73 0 1.66 1.34 3 3 3 1.37 0 2.51-.92 2.87-2.18z" fill="#ecc19c" />
      </g>
      <g>
        <path d="m48.89 21.81-.02.01c-.36 1.26-1.5 2.18-2.87 2.18-1.66 0-3-1.34-3-3 0-1.22.73-2.26 1.77-2.73l.01-.01c1.64.84 3.04 2.07 4.11 3.55z" fill="#cf9e76" />
      </g>
      <g>
        <path d="m41 28c1.66 0 3 1.34 3 3s-1.34 3-3 3c-.66 0-1.25-.22-1.75-.57-.13-1.32-.42-2.62-.86-3.88.51-.92 1.48-1.55 2.61-1.55z" fill="#cf9e76" />
      </g>
    </g>
    <g>
      <path d="m31 0c-2.722 0-5.436.371-8.078 1.083-1.529-.691-3.198-1.083-4.922-1.083-6.617 0-12 5.383-12 12 0 .219.021.433.033.649-3.941 5.349-6.033 11.683-6.033 18.351 0 17.094 13.907 31 31 31s31-13.906 31-31-13.907-31-31-31zm-13 2c2.869 0 5.583 1.238 7.471 3.361-.607.317-1.179.687-1.719 1.099-1.499-1.553-3.58-2.46-5.752-2.46-4.411 0-8 3.589-8 8s3.589 8 8 8c.548 0 1.094-.065 1.634-.18.218.646.481 1.271.801 1.863-.8.205-1.614.317-2.435.317-5.514 0-10-4.486-10-10s4.486-10 10-10zm23.601 49.966c.1.301-.038.635-.321.776l-.54.27c-.33.165-.703.188-1.05.063-.347-.124-.62-.378-.77-.715l-1.252-2.816 1.934-1.741 6.398-3.999 2.977 3.404c.367.418.346 1.055-.05 1.45l-.177.178c-.414.414-1.087.414-1.501 0l-.223-.223c-1.1-1.102-2.839-1.272-4.135-.41-1.225.818-1.756 2.365-1.29 3.763zm-22.383-13.08c-.929-.257-1.703-.954-2.035-1.902l-.429-1.226-1.075.728c-.497.336-1.077.514-1.679.514-1.482 0-2.723-1.069-2.95-2.543l-.085-.553-.516-.217c-1.488-.625-2.449-2.073-2.449-3.687 0-2.206 1.794-4 4-4h1v-1c0-.673.167-1.314.479-1.891 1.397.57 2.921.891 4.521.891 1.218 0 2.422-.199 3.595-.57 2.199 2.778 5.594 4.57 9.405 4.57.301 0 .62-.02.956-.05.814 1.101 1.409 2.311 1.805 3.574l-2.967-1.271c-.391-.168-.805-.253-1.23-.253h-.443c-1.721 0-3.121 1.4-3.121 3.121 0 .822.333 1.626.914 2.207l1.401 1.401c.442.442.685 1.029.685 1.653 0 .437-.502.751-.895.553l-4.104-2.052c-1.314-.657-2.896-.401-3.937.639-.39.39-.668.858-.846 1.364zm.887-27.886h-1.105v-4.908c1.243.208 2.377.797 3.265 1.705-.882.94-1.614 2.019-2.16 3.203zm-3.105 0h-4.91c.423-2.507 2.403-4.486 4.91-4.91zm2.395 2c-.249.961-.395 1.962-.395 3 0 .638.065 1.26.161 1.871-.385.078-.773.129-1.161.129-2.967 0-5.431-2.167-5.91-5zm5.695 4h4.91v4.559.351c-2.507-.424-4.486-2.403-4.91-4.91zm6.91-6.91c1.639.276 3.081 1.221 3.997 2.605-1.589.641-2.963 1.698-3.997 3.034zm-2 4.91h-4.91c.423-2.507 2.403-4.486 4.91-4.91zm-9 25.091c0-.437.17-.847.479-1.155.43-.43 1.083-.537 1.628-.264l4.104 2.052c.362.18.767.276 1.171.276 1.444 0 2.618-1.175 2.618-2.618 0-1.158-.451-2.247-1.27-3.066l-1.402-1.401c-.208-.21-.328-.499-.328-.794 0-.618.503-1.121 1.121-1.121h.443c.152 0 .301.03.442.091l4.241 1.818c.181 1.81-.03 3.664-.694 5.433l-.414 1.105-5.805 5.805-5.682-4.261c-.408-.307-.652-.797-.652-1.308zm12.933 2.39 3.683 4.42-8.981 8.082c-1.905-.173-3.428-1.688-3.615-3.589zm5.277 3.208-4.069-4.883.286-.763c1.692-4.512.976-9.507-1.915-13.361-.975-1.3-1.512-2.91-1.512-4.535v-.589c0-4.167 3.391-7.558 7.559-7.558 7.962 0 14.441 6.479 14.441 14.441 0 5.012-2.537 9.59-6.787 12.247zm.349-33.689c-.536 0-1.058.055-1.57.14-1.399-2.533-4.05-4.14-6.989-4.14-4.411 0-8 3.589-8 8 0 4.135 3.154 7.548 7.183 7.959.136.698.346 1.381.631 2.032-5.428-.101-9.814-4.54-9.814-9.991 0-5.514 4.486-10 10-10 4.018 0 7.599 2.42 9.161 6.031-.201-.008-.399-.031-.602-.031zm-8.559 48c-15.991 0-29-13.01-29-29 0-5.573 1.554-10.899 4.513-15.54.854 2.83 2.731 5.213 5.195 6.739-.31.587-.533 1.216-.636 1.872-2.869.448-5.072 2.936-5.072 5.929 0 2.239 1.234 4.266 3.186 5.3.577 2.174 2.522 3.7 4.814 3.7.618 0 1.223-.112 1.791-.33.728 1.152 1.901 1.953 3.234 2.223.063 1.059.576 2.058 1.429 2.697l5.453 4.09-2.907 2.906v.414c0 3.309 2.691 6 6 6h.384l6.722-6.05.987 2.222c.374.841 1.056 1.475 1.922 1.785.37.133.751.198 1.131.198.51 0 1.017-.119 1.488-.354l.54-.27c1.167-.584 1.737-1.959 1.324-3.198-.182-.545.025-1.147.502-1.466.506-.334 1.184-.268 1.612.16l.223.223c1.195 1.194 3.136 1.192 4.331-.002l.176-.177c1.137-1.136 1.198-2.973.14-4.181l-2.765-3.16.555-.347c4.839-3.024 7.728-8.236 7.728-13.942 0-8.101-5.895-14.836-13.618-16.181-1.605-4.893-6.189-8.26-11.382-8.26-1.261 0-2.476.198-3.619.56-.596-.75-1.27-1.418-2.012-1.997 1.857-.368 3.742-.563 5.631-.563 15.991 0 29 13.01 29 29s-13.009 29-29 29z" />
      <path d="m18.539 54.958c.675.352 1.368.676 2.06.965l.771-1.846c-.64-.268-1.282-.567-1.907-.893z" />
      <path d="m6.917 37.731-1.927.538c1.783 6.392 5.856 11.892 11.471 15.486l1.078-1.684c-5.2-3.33-8.972-8.422-10.622-14.34z" />
      <path d="m39.559 16c-3.065 0-5.559 2.493-5.559 5.559v.589c0 1.195.395 2.38 1.112 3.335 3.092 4.124 4.018 9.515 2.477 14.421l-.164.521 2.204 2.646 6.524-4.077c3.661-2.291 5.847-6.235 5.847-10.553 0-6.86-5.581-12.441-12.441-12.441zm8.162 5.948c-.345.629-.991 1.052-1.721 1.052-1.103 0-2-.897-2-2 0-.628.309-1.202.799-1.575 1.124.655 2.115 1.511 2.922 2.523zm-7.553 10.839c-.135-1.037-.362-2.061-.674-3.062.377-.448.919-.725 1.506-.725 1.103 0 2 .897 2 2s-.897 2-2 2c-.291 0-.568-.087-.832-.213zm4.925 4.51-5.044 3.151-.395-.474c.464-1.654.681-3.351.663-5.038.225.04.452.064.683.064 2.206 0 4-1.794 4-4s-1.794-4-4-4c-.823 0-1.608.265-2.265.725-.541-1.208-1.214-2.364-2.023-3.442-.459-.612-.712-1.371-.712-2.136v-.589c0-1.961 1.596-3.558 3.559-3.558 1.155 0 2.263.196 3.302.544-.542.69-.861 1.547-.861 2.456 0 2.206 1.794 4 4 4 1.108 0 2.141-.47 2.878-1.241.712 1.41 1.122 2.998 1.122 4.682 0 3.623-1.834 6.934-4.907 8.856z" />
      <path d="m24 30c0-2.206-1.794-4-4-4s-4 1.794-4 4 1.794 4 4 4 4-1.794 4-4zm-4 2c-1.103 0-2-.897-2-2s.897-2 2-2 2 .897 2 2-.897 2-2 2z" />
      <path d="m12.129 28.129c-1.231.374-2.129 1.519-2.129 2.871h2c0-.552.449-1 1-1h1v-1c0-.552.449-1 1-1v-2c-1.352 0-2.497.898-2.871 2.129z" />
    </g>
  </g>
</svg>