<svg height="512pt" viewBox="0 -7 512.00203 512" width="512pt" xmlns="http://www.w3.org/2000/svg">
 <symbol id="Moroccan" viewBox="0 -7 512.00203 512">
    <title>Moroccan</title>
    <path d="m41.222656 368.300781 214.777344-297.277343 214.777344 297.277343-214.777344 35.609375zm0 0" fill="#ff8f33" />
    <path d="m159.859375 368.300781 96.144531 35.605469-214.777344-35.605469 214.777344-297.273437zm0 0" fill="#e05b19" />
    <path d="m478.949219 403.90625v11.355469c0 2.882812-.160157 5.730469-.484375 8.527343-4.226563 37.363282-35.953125 66.386719-74.4375 66.386719h-296.058594c-41.375 0-74.914062-33.535156-74.914062-74.914062v-11.355469zm0 0" fill="#e05b19" />
    <path d="m478.464844 423.789062c-4.226563 37.363282-35.953125 66.386719-74.4375 66.386719h-198.28125c-29.828125 0-55.601563-17.4375-67.65625-42.683593-5.242188-11 2.921875-23.703126 15.109375-23.703126zm0 0" fill="#ff8f33" />
    <path d="m504.398438 386.105469c0 9.832031-7.976563 17.800781-17.8125 17.800781h-461.175782c-4.917968 0-9.367187-1.984375-12.59375-5.210938-3.222656-3.222656-5.210937-7.671874-5.210937-12.589843 0-9.835938 7.96875-17.804688 17.804687-17.804688h461.175782c4.917968 0 9.367187 1.988281 12.589843 5.210938 3.226563 3.226562 5.222657 7.675781 5.222657 12.59375zm0 0" fill="#e05b19" />
    <path d="m504.398438 386.105469c0 9.832031-7.976563 17.800781-17.8125 17.800781h-347.550782c-4.917968 0-9.371094-1.984375-12.59375-5.210938-3.214844-3.222656-5.210937-7.671874-5.210937-12.589843 0-9.835938 7.96875-17.804688 17.804687-17.804688h347.550782c4.917968 0 9.367187 1.988281 12.589843 5.210938 3.226563 3.226562 5.222657 7.675781 5.222657 12.59375zm0 0" fill="#ff8f33" />
    <path d="m256 7.605469h47.292969c9.65625 0 18.046875 6.640625 20.265625 16.039062l16.917968 71.6875-31.367187 47.039063h-106.21875l-31.367187-47.039063 16.917968-71.6875c2.21875-9.398437 10.605469-16.039062 20.265625-16.039062zm0 0" fill="#ff8f33" />
    <path d="m340.476562 95.332031-31.367187 47.039063h-106.21875l-31.367187-47.039063zm0 0" fill="#e05b19" />
    <path d="m210.070312 95.332031 17.054688 47.042969h-24.230469l-31.371093-47.042969 16.921874-71.679687c2.222657-9.40625 10.605469-16.046875 20.269532-16.046875h21.574218c-5.253906 0-9.816406 6.640625-11.019531 16.046875zm0 0" fill="#e05b19" />
    <path d="m486.589844 360.695312h-11.925782l-157.050781-217.371093 29.1875-43.769531c1.171875-1.753907 1.558594-3.914063 1.078125-5.96875l-16.917968-71.6875c-3.042969-12.894532-14.421876-21.898438-27.667969-21.898438h-94.585938c-13.246093 0-24.625 9.007812-27.664062 21.898438l-16.917969 71.6875c-.484375 2.050781-.097656 4.214843 1.074219 5.96875l29.1875 43.765624-44.453125 61.527344c-2.457032 3.402344-1.691406 8.15625 1.710937 10.613282 1.347657.972656 2.90625 1.441406 4.449219 1.441406 2.359375 0 4.683594-1.09375 6.167969-3.148438l46.078125-63.78125h95.320312l114.058594 157.875h-323.429688l51.945313-71.902344c2.457031-3.402343 1.691406-8.15625-1.710937-10.617187-3.402344-2.457031-8.15625-1.691406-10.617188 1.710937l-96.5625 133.65625h-11.933594c-14.011718 0-25.410156 11.398438-25.410156 25.410157s11.398438 25.410156 25.410156 25.410156h.039063v3.746094c0 45.5 37.019531 82.519531 82.523437 82.519531h296.058594c45.5 0 82.523438-37.019531 82.523438-82.519531v-3.746094h.039062c14.007812 0 25.410156-11.398437 25.410156-25.410156s-11.402344-25.410157-25.414062-25.410157zm-279.628906-225.929687-21.226563-31.828125h140.53125l-21.226563 31.828125zm-11.117188-109.375c1.414062-5.996094 6.703125-10.183594 12.863281-10.183594h94.585938c6.160156 0 11.449219 4.1875 12.863281 10.183594l14.710938 62.339844h-149.734376zm-112.542969 297.664063h345.40625l27.195313 37.640624h-399.796875zm403.289063 73.253906h-67.035156c-4.199219 0-7.601563 3.402344-7.601563 7.601562 0 4.199219 3.402344 7.605469 7.601563 7.605469h51.789062v3.746094c0 37.117187-30.199219 67.3125-67.316406 67.3125h-296.058594c-37.117188 0-67.3125-30.195313-67.3125-67.3125v-3.746094h348.480469c4.199219 0 7.605469-3.40625 7.605469-7.605469 0-4.199218-3.40625-7.601562-7.605469-7.601562h-363.726563c-5.625 0-10.203125-4.578125-10.203125-10.203125s4.578125-10.199219 10.203125-10.199219h461.179688c5.625 0 10.203125 4.574219 10.203125 10.199219s-4.578125 10.203125-10.203125 10.203125zm0 0" />
</svg>