<svg clip-rule="evenodd" fill-rule="evenodd" height="512" stroke-linejoin="round" stroke-miterlimit="2" viewBox="0 0 64 64" width="512" xmlns="http://www.w3.org/2000/svg">
  <g transform="translate(-192 -64)">
    <g id="contact">
      <path d="m236 72c0-2.209-1.791-4-4-4h-32c-2.209 0-4 1.791-4 4v48c0 2.209 1.791 4 4 4h32c2.209 0 4-1.791 4-4z" fill="#f0f0f0" />
      <g transform="translate(0 8)">
        <path d="m221 108c-.552 0-1-.448-1-1v-2.172c0-.53.211-1.039.586-1.414 3.507-3.507 21.751-21.751 27-27 .375-.375.884-.586 1.414-.586s1.039.211 1.414.586c.38.38.792.792 1.172 1.172.375.375.586.884.586 1.414s-.211 1.039-.586 1.414c-5.249 5.249-23.493 23.493-27 27-.375.375-.884.586-1.414.586-.631 0-1.502 0-2.172 0z" fill="#ffce4b" />
      </g>
      <g transform="translate(0 8)">
        <path d="m245 79 2.586-2.586c.375-.375.884-.586 1.414-.586s1.039.211 1.414.586c.38.38.792.792 1.172 1.172.375.375.586.884.586 1.414s-.211 1.039-.586 1.414l-2.586 2.586z" fill="#ff7b6c" />
      </g>
      <circle cx="216" cy="84" fill="#ffce4b" r="8" />
      <path d="m212 90.928c1.177.682 2.543 1.072 4 1.072s2.823-.39 4-1.072v7.483c0 .555-.287 1.07-.759 1.361-.472.292-1.061.318-1.557.07-.884-.442-1.684-.842-1.684-.842s-.8.4-1.684.842c-.496.248-1.085.222-1.557-.07-.472-.291-.759-.806-.759-1.361 0-2.984 0-7.483 0-7.483z" fill="#ff7b6c" />
      <g transform="matrix(.8 0 0 .8 43.2 16.8)">
        <circle cx="216" cy="84" fill="#f9b32f" r="5" />
      </g>
      <path d="m220.127 112.127 3.746 3.746c-.222.083-.46.127-.701.127-.631 0-1.502 0-2.172 0-.552 0-1-.448-1-1v-2.172c0-.241.044-.479.127-.701z" fill="#ffdcb6" />
      <g transform="translate(-2 -130)">
        <path d="m212 241c-1.657 0-3 1.343-3 3 0 .552-.448 1-1 1s-1-.448-1-1-.448-1-1-1-1 .448-1 1c0 1.657 1.343 3 3 3s3-1.343 3-3c0-.552.448-1 1-1s1 .448 1 1c0 1.657 1.343 3 3 3h2c.552 0 1-.448 1-1s-.448-1-1-1h-2c-.552 0-1-.448-1-1 0-1.657-1.343-3-3-3z" />
      </g>
      <g transform="translate(0 -4)">
        <path d="m204 109h4c.552 0 1-.448 1-1s-.448-1-1-1h-4c-.552 0-1 .448-1 1s.448 1 1 1z" />
      </g>
      <g transform="translate(0 -4)">
        <path d="m212 109h8c.552 0 1-.448 1-1s-.448-1-1-1h-8c-.552 0-1 .448-1 1s.448 1 1 1z" />
      </g>
      <path d="m204 109h14c.552 0 1-.448 1-1s-.448-1-1-1h-14c-.552 0-1 .448-1 1s.448 1 1 1z" />
      <g transform="translate(-2 -130)">
        <path d="m213 221.483v6.928c0 .901.467 1.738 1.233 2.212.767.474 1.724.517 2.53.114 0 0 1.237-.619 1.237-.619s1.237.619 1.237.619c.806.403 1.763.36 2.53-.114.766-.474 1.233-1.311 1.233-2.212v-6.928c2.411-1.615 4-4.365 4-7.483 0-4.967-4.033-9-9-9s-9 4.033-9 9c0 3.118 1.589 5.868 4 7.483zm8 1.004c-.939.332-1.948.513-3 .513s-2.061-.181-3-.513v5.924c0 .208.108.401.285.511.176.109.397.119.583.026l1.685-.842c.281-.141.613-.141.894 0l1.685.842c.186.093.407.083.583-.026.177-.11.285-.303.285-.511zm-3-15.487c3.863 0 7 3.137 7 7s-3.137 7-7 7-7-3.137-7-7 3.137-7 7-7z" />
      </g>
      <g transform="matrix(.8 0 0 .8 43.2 16.8)">
        <path d="m216 77.75c-3.449 0-6.25 2.801-6.25 6.25s2.801 6.25 6.25 6.25 6.25-2.801 6.25-6.25-2.801-6.25-6.25-6.25zm0 2.5c2.07 0 3.75 1.68 3.75 3.75s-1.68 3.75-3.75 3.75-3.75-1.68-3.75-3.75 1.68-3.75 3.75-3.75z" />
      </g>
      <path d="m237 104.414v15.586c0 2.761-2.239 5-5 5h-32c-2.761 0-5-2.239-5-5v-48c0-2.761 2.239-5 5-5h32c2.761 0 5 2.239 5 5v21.586l9.879-9.879c.562-.563 1.325-.879 2.121-.879s1.559.317 2.121.879c.381.38.792.791 1.172 1.172.562.562.879 1.325.879 2.121s-.316 1.559-.879 2.121zm-2-8.828v-23.586c0-1.657-1.343-3-3-3h-32c-1.657 0-3 1.343-3 3v48c0 1.657 1.343 3 3 3h32c1.657 0 3-1.343 3-3v-13.586l-9.707 9.707c-.563.563-1.326.879-2.121.879h-2.172c-1.105 0-2-.895-2-2v-2.172c0-.795.316-1.558.879-2.121zm-14 19.414h.586l-.586-.586zm.414-3 23.586-23.586 2.586 2.586-23.586 23.586zm27.586-22.414-2.586-2.586 1.879-1.879c.187-.187.442-.293.707-.293s.52.106.707.293l1.172 1.172c.187.187.293.442.293.707s-.106.52-.293.707z" />
    </g>
  </g>
</svg>