<svg id="Capa_1" enable-background="new 0 0 512 512" height="512" viewBox="0 0 512 512" width="512" xmlns="http://www.w3.org/2000/svg">
  <g>
    <g>
      <path d="m189.342 265.191c-1.951.346-3.991.437-6.085.232-10.422-1.019-18.855-9.454-19.872-19.875-.204-2.094-.113-4.133.233-6.084.516-2.907-.325-5.887-2.412-7.975l-33.488-33.492c-3.09-3.091-8.375-.902-8.375 3.469v229.983h241.797l-163.824-163.845c-2.088-2.088-5.067-2.929-7.974-2.413z" fill="#ffd064" />
    </g>
    <g>
      <path d="m197.316 267.604c-2.087-2.088-5.067-2.929-7.974-2.413-1.951.346-3.991.437-6.085.232-10.422-1.019-18.855-9.453-19.872-19.875-.204-2.094-.113-4.133.233-6.084.516-2.907-.325-5.887-2.412-7.975l-33.488-33.492c-3.09-3.091-8.375-.902-8.375 3.469v17.743l12.28 12.281c2.087 2.088 2.928 5.068 2.412 7.975-.346 1.951-.437 3.99-.233 6.084 1.017 10.422 9.451 18.857 19.872 19.875 2.094.205 4.134.114 6.085-.232 2.907-.516 5.887.325 7.974 2.413l163.824 163.845h29.583z" fill="#ffc250" />
    </g>
    <g>
      <path d="m453.406 470.942h-191.86c-8.284 0-15-6.716-15-15v-322.016h221.861v322.016c-.001 8.284-6.716 15-15.001 15z" fill="#ddeafb" />
    </g>
    <g>
      <path d="m432.297 133.926v288.257c0 8.128-6.589 14.717-14.717 14.717h-171.034v19.325c0 8.128 6.589 14.717 14.717 14.717h192.426c8.128 0 14.717-6.589 14.717-14.717v-322.299z" fill="#cbe2ff" />
    </g>
    <g>
      <path d="m387.008 7.359h-59.065c-8.284 0-15 6.716-15 15v27.25h89.065v-27.25c0-8.285-6.715-15-15-15z" fill="#cbe2ff" />
    </g>
    <path d="m387.008 7.359h-26.031c8.284 0 15 6.716 15 15v27.25h26.031v-27.25c0-8.285-6.715-15-15-15z" fill="#bed8fb" />
    <g>
      <path d="m468.406 132.622v15.285h-221.86v-15.285c0-3.437 1.203-6.766 3.4-9.408l60.042-72.222c1.864-2.242 4.629-3.539 7.545-3.539h79.886c2.916 0 5.681 1.297 7.545 3.539l60.042 72.222c2.197 2.642 3.4 5.971 3.4 9.408z" fill="#cbe2ff" />
    </g>
    <g>
      <path d="m465.006 123.213-60.042-72.222c-1.864-2.242-4.629-3.539-7.545-3.539h-38.032l69.51 83.611c2.197 2.643 3.4 5.971 3.4 9.408v7.436h36.109v-15.285c0-3.437-1.203-6.766-3.4-9.409z" fill="#bed8fb" />
    </g>
    <g>
      <path d="m335.637 470.942h-74.091c-8.284 0-15-6.716-15-15v-322.016h89.091z" fill="#cbe2ff" />
    </g>
    <g>
      <path d="m339.037 123.213 60.042-72.222c.824-.991 1.831-1.785 2.942-2.376-1.403-.746-2.976-1.163-4.602-1.163h-79.886c-2.916 0-5.681 1.297-7.545 3.539l-60.042 72.222c-2.197 2.643-3.4 5.971-3.4 9.408v15.285h89.091v-15.285c0-3.436 1.203-6.765 3.4-9.408z" fill="#bed8fb" />
    </g>
    <path d="m304.431 133.926h31.205v337.016h-31.205z" fill="#bed8fb" />
    <path d="m397.419 47.452h-26.518l-63.069 75.761c-2.197 2.643-3.4 5.971-3.4 9.408v15.285h31.205v-15.285c0-3.437 1.203-6.766 3.4-9.408l60.042-72.222c.824-.991 1.831-1.785 2.942-2.376-1.402-.747-2.975-1.163-4.602-1.163z" fill="#9dc6fb" />
    <g>
      <circle cx="300.493" cy="91.767" fill="#ddeafb" r="29.353" />
    </g>
    <g>
      <path d="m311.19 64.433c2.293 4.182 3.599 8.983 3.599 14.089 0 16.211-13.142 29.353-29.353 29.353-3.776 0-7.381-.721-10.697-2.019 4.987 9.096 14.649 15.265 25.755 15.265 16.211 0 29.353-13.142 29.353-29.353-.001-12.436-7.738-23.058-18.657-27.335z" fill="#cbe2ff" />
    </g>
    <g>
      <circle cx="402.022" cy="237.567" fill="#cbe2ff" r="39.706" />
    </g>
    <g>
      <path d="m432.297 263.244c5.878-6.924 9.431-15.883 9.431-25.677s-3.553-18.753-9.431-25.677z" fill="#bed8fb" />
    </g>
    <g>
      <circle cx="149.857" cy="302.434" fill="#ffc250" r="8.019" />
    </g>
    <g>
      <circle cx="180.597" cy="326.517" fill="#ffc250" r="17.32" />
    </g>
    <g>
      <path d="m186.83 310.372c.635 1.802.999 3.733.999 5.752 0 9.566-7.755 17.32-17.32 17.32-2.2 0-4.297-.427-6.233-1.175 2.374 6.734 8.775 11.568 16.321 11.568 9.566 0 17.32-7.755 17.32-17.32 0-7.366-4.606-13.641-11.087-16.145z" fill="#ebb044" />
    </g>
    <g>
      <path d="m246.546 436.9v19.325c0 8.128 6.589 14.717 14.717 14.717h74.374v-34.042z" fill="#9dc6fb" />
    </g>
    <g>
      <path d="m174.256 431.774c0 26.685-20.921 48.318-46.728 48.318s-46.728-21.633-46.728-48.318 20.921-80.752 46.728-80.752 46.728 54.067 46.728 80.752z" fill="#f9efda" />
    </g>
    <g>
      <path d="m127.528 351.022c-4.781 0-9.394 1.859-13.738 5.053 19.102 14.044 32.99 53.958 32.99 75.699s-13.888 40.125-32.99 46.192c4.344 1.38 8.956 2.126 13.738 2.126 25.807 0 46.728-21.633 46.728-48.318s-20.921-80.752-46.728-80.752z" fill="#f4ddb1" />
    </g>
    <g>
      <path d="m293.078 431.774c0 26.685-20.921 48.318-46.728 48.318s-46.728-21.633-46.728-48.318 20.921-80.752 46.728-80.752 46.728 54.067 46.728 80.752z" fill="#f9efda" />
    </g>
    <g>
      <path d="m246.35 351.022c-4.781 0-9.394 1.859-13.738 5.053 19.102 14.044 32.99 53.958 32.99 75.699s-13.888 40.125-32.99 46.192c4.344 1.38 8.956 2.126 13.738 2.126 25.807 0 46.728-21.633 46.728-48.318s-20.921-80.752-46.728-80.752z" fill="#f4ddb1" />
    </g>
    <g>
      <path d="m412.012 431.774c0 26.685-20.921 48.318-46.728 48.318s-46.728-21.633-46.728-48.318 20.921-80.752 46.728-80.752 46.728 54.067 46.728 80.752z" fill="#f9efda" />
    </g>
    <g>
      <path d="m365.284 351.022c-4.781 0-9.394 1.859-13.738 5.053 19.103 14.044 32.99 53.958 32.99 75.699s-13.888 40.125-32.99 46.192c4.344 1.38 8.956 2.126 13.738 2.126 25.807 0 46.728-21.633 46.728-48.318s-20.921-80.752-46.728-80.752z" fill="#f4ddb1" />
    </g>
    <g>
      <path d="m96.399 444.499v28.354c0 9.747 7.902 17.649 17.649 17.649h41.894c8.523-6.568 19.194-10.484 30.787-10.484 11.592 0 22.264 3.916 30.787 10.484h57.54c8.523-6.568 19.194-10.484 30.787-10.484 11.592 0 22.264 3.916 30.787 10.484h41.798c9.747 0 17.649-7.902 17.649-17.649v-28.354z" fill="#aa8080" />
    </g>
    <g>
      <path d="m127.623 504.642h-.19c-26.727 0-48.394-21.667-48.394-48.394v-15.443h96.978v15.443c0 26.727-21.667 48.394-48.394 48.394z" fill="#9d6b6b" />
    </g>
    <g>
      <path d="m246.501 504.642h-.19c-26.727 0-48.394-21.667-48.394-48.394v-15.443h96.978v15.443c0 26.727-21.667 48.394-48.394 48.394z" fill="#9d6b6b" />
    </g>
    <g>
      <path d="m365.378 504.642h-.19c-26.727 0-48.394-21.667-48.394-48.394v-15.443h96.978v15.443c.001 26.727-21.666 48.394-48.394 48.394z" fill="#9d6b6b" />
    </g>
    <g>
      <path d="m149.527 440.804v15.348c0 22.186-14.905 40.877-35.244 46.642 4.212 1.194 8.651 1.847 13.245 1.847 26.78 0 48.489-21.709 48.489-48.489v-15.348z" fill="#8b5e5e" />
    </g>
    <g>
      <path d="m268.404 440.804v15.348c0 22.186-14.905 40.877-35.244 46.642 4.212 1.194 8.651 1.847 13.245 1.847 26.78 0 48.489-21.709 48.489-48.489v-15.348z" fill="#8b5e5e" />
    </g>
    <g>
      <path d="m387.282 440.804v15.348c0 22.186-14.905 40.877-35.244 46.642 4.212 1.194 8.651 1.847 13.245 1.847 26.78 0 48.489-21.709 48.489-48.489v-15.348z" fill="#8b5e5e" />
    </g>
    <g>
      <path d="m434.272 451.295h-375.843c-8.193 0-14.835-6.642-14.835-14.835 0-8.193 6.642-14.835 14.835-14.835h375.843c8.193 0 14.835 6.642 14.835 14.835 0 8.193-6.642 14.835-14.835 14.835z" fill="#9d6b6b" />
    </g>
    <path d="m437.834 422.073c-.239 7.984-6.771 14.387-14.813 14.387h-375.842c-1.231 0-2.419-.166-3.563-.449-.005.15-.023.297-.023.449 0 8.193 6.642 14.835 14.835 14.835h375.843c8.193 0 14.835-6.642 14.835-14.835.001-6.963-4.802-12.789-11.272-14.387z" fill="#8b5e5e" />
    <g>
      <path d="m468.406 356.281c4.064 0 7.359-3.295 7.359-7.359v-216.3c0-5.144-1.811-10.156-5.1-14.113l-60.043-72.223c-.396-.476-.816-.925-1.255-1.351v-22.859c0-12.173-9.903-22.076-22.076-22.076h-59.63c-12.173 0-22.076 9.903-22.076 22.076v22.859c-.439.426-.859.875-1.255 1.352l-7.439 8.948c-18.558 1.816-33.11 17.506-33.11 36.533 0 1.053.055 2.092.142 3.122l-19.637 23.62c-3.289 3.956-5.1 8.968-5.1 14.113v166.451l-36.667-36.674c-3.733-3.733-9.139-5.4-14.464-4.455-1.333.237-2.707.288-4.082.154-6.89-.674-12.592-6.377-13.265-13.267-.134-1.375-.082-2.749.155-4.083.945-5.323-.721-10.73-4.454-14.463l-33.489-33.493c-3.52-3.52-8.767-4.562-13.366-2.659-4.599 1.905-7.571 6.352-7.571 11.331v146.942c-19.071 11.923-31.995 43.771-36.549 65.859h-17.005c-12.237 0-22.194 9.956-22.194 22.194 0 12.237 9.956 22.194 22.194 22.194h13.316c1.313 29.637 25.828 53.346 55.783 53.346 18.078 0 34.169-8.641 44.382-22.001 9.637-3.578 20.741-3.484 30.319.262 10.223 13.21 26.218 21.74 44.176 21.74 18.019 0 34.062-8.585 44.28-21.871 9.611-3.662 20.714-3.664 30.317 0 10.22 13.284 26.263 21.87 44.282 21.87 22.928 0 42.666-13.893 51.257-33.7h37.148c12.173 0 22.076-9.817 22.076-21.883v-72.709c0-4.064-3.295-7.359-7.359-7.359s-7.359 3.295-7.359 7.359v72.709c0 3.951-3.301 7.166-7.359 7.166h-33.067c.217-1.623.372-3.265.446-4.929h13.204c12.237 0 22.194-9.956 22.194-22.194s-9.956-22.194-22.194-22.194h-16.874c-6.061-30.255-25.487-70.603-52.115-70.603-8.166 0-15.654 3.801-22.288 9.936v-198.333h2.655c4.064 0 7.359-3.295 7.359-7.359s-3.295-7.359-7.359-7.359h-2.655v-7.927c0-1.715.604-3.386 1.7-4.704l57.326-68.955 57.326 68.955c1.097 1.319 1.7 2.989 1.7 4.704v7.927h-80.846c-4.064 0-7.359 3.295-7.359 7.359s3.295 7.359 7.359 7.359h80.847v193.657c.001 4.063 3.295 7.358 7.359 7.358zm-167.913-286.508c12.128 0 21.995 9.867 21.995 21.995s-9.867 21.995-21.995 21.995-21.995-9.867-21.995-21.995 9.867-21.995 21.995-21.995zm27.785 303.218c-7.251 12.876-12.458 28.04-15.109 41.275h-14.705c-5.472-27.314-21.837-62.851-44.561-69.503v-189.497h74.374v217.725zm-81.928-14.611c14.545 0 30.967 28.978 37.065 55.886h-74.126c6.145-27.048 22.564-55.886 37.061-55.886zm-119.649-150.993 29.301 29.305c.337.337.475.893.37 1.485-.471 2.655-.576 5.375-.311 8.085 1.364 13.979 12.5 25.117 26.481 26.484 2.711.265 5.432.16 8.085-.31.594-.105 1.149.034 1.486.37l47.075 47.081v24.766c-22.904 6.337-39.41 41.997-44.95 69.613h-14.595c-6.061-30.255-25.487-70.603-52.115-70.603-.277 0-.552.013-.827.022zm.827 150.993c14.545 0 30.967 28.978 37.065 55.886h-74.135c6.122-26.947 22.751-55.886 37.07-55.886zm59.2 114.28c-1.997 0-3.979.105-5.943.305 1.439-4.548 2.307-9.347 2.527-14.311h7.309c.221 4.988 1.098 9.808 2.549 14.375-2.128-.236-4.276-.369-6.442-.369zm59.678 24.623c-21.839 0-39.749-17.111-41.047-38.629h82.095c-1.299 21.518-19.209 38.629-41.048 38.629zm59.436-24.623c-2.08 0-4.144.123-6.191.341 1.446-4.559 2.319-9.369 2.539-14.347h7.309c.221 4.976 1.093 9.783 2.537 14.34-2.046-.217-4.111-.334-6.194-.334zm59.441 24.623c-21.839 0-39.749-17.111-41.047-38.629h82.095c-1.298 21.518-19.208 38.629-41.048 38.629zm76.465-60.823c0 4.122-3.354 7.476-7.476 7.476h-299.786c-4.064 0-7.359 3.295-7.359 7.359s3.295 7.359 7.359 7.359h34.09c-1.298 21.518-19.208 38.629-41.048 38.629-21.839 0-39.749-17.111-41.047-38.629h13.91c4.064 0 7.359-3.295 7.359-7.359s-3.295-7.359-7.359-7.359h-41.962c-4.122 0-7.476-3.354-7.476-7.476 0-4.123 3.354-7.477 7.476-7.477h375.843c4.122 0 7.476 3.354 7.476 7.477zm-76.465-78.08c14.545 0 30.967 28.978 37.065 55.886h-74.13c6.099-26.908 22.521-55.886 37.065-55.886zm-31.905-239.871c-3.289 3.956-5.1 8.968-5.1 14.113v7.927h-74.374v-7.927c0-1.715.604-3.386 1.7-4.704l13.822-16.626c6.506 10.315 17.996 17.188 31.067 17.188 20.243 0 36.712-16.469 36.712-36.712 0-15.466-9.618-28.719-23.184-34.118l1.626-1.956c.467-.561 1.155-.884 1.886-.884h68.802zm61.272-78.416h-74.347v-18.017c0-4.058 3.301-7.359 7.359-7.359h59.63c4.058 0 7.359 3.301 7.359 7.359v18.017z" />
      <path d="m274.739 227.449h27.554c4.064 0 7.359-3.295 7.359-7.359s-3.295-7.359-7.359-7.359h-27.554c-4.064 0-7.359 3.295-7.359 7.359 0 4.065 3.295 7.359 7.359 7.359z" />
      <path d="m274.739 259.475h27.554c4.064 0 7.359-3.295 7.359-7.359s-3.295-7.359-7.359-7.359h-27.554c-4.064 0-7.359 3.295-7.359 7.359s3.295 7.359 7.359 7.359z" />
      <path d="m274.739 292.036h27.554c4.064 0 7.359-3.295 7.359-7.359s-3.295-7.359-7.359-7.359h-27.554c-4.064 0-7.359 3.295-7.359 7.359s3.295 7.359 7.359 7.359z" />
      <path d="m354.957 237.567c0 25.951 21.113 47.065 47.065 47.065s47.064-21.113 47.064-47.065-21.113-47.064-47.064-47.064-47.065 21.113-47.065 47.064zm79.412 0c0 17.836-14.511 32.347-32.347 32.347s-32.347-14.511-32.347-32.347 14.511-32.347 32.347-32.347 32.347 14.511 32.347 32.347z" />
      <ellipse cx="149.857" cy="302.434" rx="8.019" ry="8.019" transform="matrix(.383 -.924 .924 .383 -186.903 325.148)" />
      <path d="m180.597 351.196c13.608 0 24.679-11.071 24.679-24.679s-11.071-24.678-24.679-24.678-24.678 11.071-24.678 24.678c-.001 13.608 11.07 24.679 24.678 24.679zm0-34.64c5.493 0 9.962 4.469 9.962 9.961 0 5.493-4.469 9.962-9.962 9.962s-9.961-4.469-9.961-9.962c-.001-5.493 4.468-9.961 9.961-9.961z" />
    </g>
  </g>
</svg>