<svg id="capa" enable-background="new 0 0 512 512" height="512" viewBox="0 0 512 512" width="512" xmlns="http://www.w3.org/2000/svg">
  <g>
    <g>
      <g>
        <path d="m352.66 22.454v231.19c-10.08-7.07-20.54-13.61-31.35-19.62l-74.86 74.86c12.03 21.65 26.24 41.92 42.39 60.52 16.15 18.59 34.22 35.52 53.97 50.47l9.85 7.46v30.08h-342.66v-434.96z" fill="#f9f5f3" />
      </g>
      <g>
        <path d="m321.306 234.026-37.428 37.428-37.428 37.428c24.052 43.294 56.871 81.095 96.358 110.989l92.077 69.705 33.557-33.557 33.558-33.558-69.705-92.077c-29.893-39.487-67.694-72.306-110.989-96.358z" fill="#ff7d95" />
      </g>
      <g>
        <path d="m240.361 261.494-23.508-23.508 17.257-49.858 39.808 39.809z" fill="#ffd88a" />
      </g>
      <g>
        <path d="m275.175 226.679-37.497 37.498c-5.508 5.508-5.508 14.438 0 19.946l16.766 16.766 57.443-57.443-16.766-16.766c-5.508-5.509-14.438-5.509-19.946-.001z" fill="#ff7d95" />
      </g>
      <g>
        <path d="m10 188.124h224.11l-16.96 49h-207.15z" fill="#ffd88a" />
      </g>
      <g>
        <path d="m281.627 360.827c-7.044-8.649-13.684-17.634-19.887-26.923h-187.74v68.21h207.627z" fill="#ccd3dd" />
      </g>
      <g>
        <path d="m351.169 374.156-34.354-34.354c-10.312-10.312-10.312-27.03 0-37.341 10.175-10.175 27.167-10.175 37.341 0l34.354 34.354c10.175 10.175 10.175 27.167 0 37.341-10.312 10.312-27.03 10.312-37.341 0z" fill="#ffc135" />
      </g>
    </g>
    <g>
      <g>
        <path d="m440.268 324.348c-22.161-29.272-48.174-54.659-77.607-75.867v-226.027c0-5.522-4.478-10-10-10h-342.661c-5.522 0-10 4.478-10 10v434.96c0 5.522 4.478 10 10 10h342.66c5.522 0 10-4.478 10-10v-9.973l66.189 50.107c3.934 2.978 9.62 2.586 13.107-.901l67.114-67.114c3.531-3.531 3.916-9.126.901-13.107zm-97.608-291.894v202.558c-5.411-3.382-10.913-6.627-16.49-9.728-3.86-2.149-8.81-1.452-11.935 1.67l-2.348 2.348-9.695-9.695c-7.09-7.09-18.163-9.061-27.26-4.799l-33.75-33.751c-1.843-1.843-4.464-2.933-7.071-2.933h-69.174c-5.522 0-10 4.478-10 10s4.478 10 10 10h55.131l-10.038 29h-190.03v-29h56.963c5.522 0 10-4.478 10-10s-4.478-10-10-10h-56.963v-145.67zm-104.325 174.041 21.441 21.441-19.415 19.415-12.01-12.01zm6.414 70.556c-1.601-1.6-1.601-4.203 0-5.803l37.498-37.498c1.584-1.584 4.219-1.584 5.803 0l9.695 9.695-43.301 43.301zm26.878 87.327v27.736h-187.627v-48.21h172.437c4.831 7.015 9.898 13.839 15.19 20.474zm71.033 83.036h-322.66v-200.29h191.849l14.941 14.94c-5.433 9.344-3.809 21.503 3.817 29.129l9.695 9.695-.923.923c-3.121 3.121-3.815 8.07-1.67 11.931.735 1.323 4.653 8.104 5.883 10.162h-169.592c-5.522 0-10 4.478-10 10v68.21c0 5.522 4.478 10 10 10h207.627c5.522 0 10-4.478 10-10v-14.719c12.078 12.77 25.091 24.654 38.862 35.575 4.007 3.177 8.095 6.248 12.171 9.335zm91.316 28.93c-30.713-23.251-62.039-45.858-92.142-69.897-33.229-26.489-61.475-59.203-82.918-95.886l64.07-64.07c39.288 23.001 73.854 53.627 101.336 89.93l64.446 85.131z" />
        <path d="m74.001 94.051h215.146c5.522 0 10-4.478 10-10s-4.478-10-10-10h-215.146c-5.522 0-10 4.478-10 10s4.478 10 10 10z" />
        <path d="m74.001 143.868h132.399c5.522 0 10-4.478 10-10s-4.478-10-10-10h-132.399c-5.522 0-10 4.478-10 10s4.478 10 10 10z" />
        <path d="m79.717 295.491h116.136c5.522 0 10-4.478 10-10s-4.478-10-10-10h-116.136c-5.522 0-10 4.478-10 10s4.477 10 10 10z" />
        <path d="m361.228 295.39c-14.032-14.032-37.451-14.032-51.483 0s-14.032 37.451 0 51.483l34.354 34.354h.001c7.097 7.097 16.418 10.645 25.74 10.645s18.646-3.549 25.742-10.646c14.032-14.032 14.032-37.451 0-51.483zm20.21 71.694c-6.396 6.396-16.802 6.396-23.199.001h.001l-34.354-34.354c-6.324-6.322-6.324-16.876 0-23.198 6.322-6.324 16.876-6.324 23.198 0l34.354 34.354c6.324 6.323 6.324 16.874 0 23.197z" />
        <path d="m131.29 184.305c-3.393-8.283-15.635-7.96-18.647.455-1.435 4.01-.097 8.628 3.261 11.248 3.249 2.534 7.812 2.8 11.332.667 4.158-2.519 5.929-7.873 4.054-12.37z" />
      </g>
    </g>
  </g>
</svg>