<svg id="time" enable-background="new 0 0 512 512" height="512" viewBox="0 0 512 512" width="time" xmlns="http://www.w3.org/2000/svg">
  <g>
    <g>
      <g>
        <g>
          <path d="m329.86 25.13v461.74c0 5.47-4.43 9.89-9.89 9.89h-302.58c-5.46 0-9.89-4.42-9.89-9.89v-461.74c0-5.47 4.43-9.89 9.89-9.89h302.58c5.46 0 9.89 4.42 9.89 9.89z" fill="#f8f3f1" />
          <g fill="#e5e1e5">
            <path d="m329.86 207.89v278.98c0 5.47-4.43 9.89-9.89 9.89h-32.63c-51.82-24.34-87.7-77.01-87.7-138.05 0-76.64 56.56-140.07 130.22-150.82z" />
            <path d="m329.854 25.126v461.748c0 5.459-4.421 9.89-9.89 9.89h-36.82c5.459 0 9.89-4.431 9.89-9.89v-461.748c0-5.459-4.431-9.89-9.89-9.89h36.82c5.469 0 9.89 4.431 9.89 9.89z" />
          </g>
        </g>
        <g>
          <g>
            <path d="m99.017 121.29h-38.27c-5.902 0-10.686-4.784-10.686-10.686v-38.269c0-5.902 4.784-10.686 10.686-10.686h38.269c5.902 0 10.686 4.784 10.686 10.686v38.269c.001 5.902-4.783 10.686-10.685 10.686z" fill="#35bcc7" />
            <path d="m109.706 72.336v38.267c0 5.899-4.787 10.686-10.686 10.686h-27.538c5.899 0 10.686-4.787 10.686-10.686v-38.267c0-5.899-4.787-10.686-10.686-10.686h27.538c5.899 0 10.686 4.787 10.686 10.686z" fill="#20abb9" />
          </g>
        </g>
        <g>
          <g>
            <path d="m99.017 218.498h-38.27c-5.902 0-10.686-4.784-10.686-10.686v-38.269c0-5.902 4.784-10.686 10.686-10.686h38.269c5.902 0 10.686 4.784 10.686 10.686v38.269c.001 5.902-4.783 10.686-10.685 10.686z" fill="#35bcc7" />
            <path d="m109.706 169.544v38.267c0 5.899-4.787 10.686-10.686 10.686h-27.538c5.899 0 10.686-4.787 10.686-10.686v-38.267c0-5.899-4.787-10.686-10.686-10.686h27.538c5.899-.001 10.686 4.787 10.686 10.686z" fill="#20abb9" />
          </g>
        </g>
        <g>
          <g>
            <path d="m99.017 315.705h-38.27c-5.902 0-10.686-4.784-10.686-10.686v-38.269c0-5.902 4.784-10.686 10.686-10.686h38.269c5.902 0 10.686 4.784 10.686 10.686v38.269c.001 5.902-4.783 10.686-10.685 10.686z" fill="#fca62f" />
            <path d="m109.706 266.751v38.267c0 5.899-4.787 10.686-10.686 10.686h-27.538c5.899 0 10.686-4.787 10.686-10.686v-38.267c0-5.899-4.787-10.686-10.686-10.686h27.538c5.899 0 10.686 4.787 10.686 10.686z" fill="#f98824" />
          </g>
        </g>
        <g>
          <g>
            <path d="m99.017 412.913h-38.27c-5.902 0-10.686-4.784-10.686-10.686v-38.269c0-5.902 4.784-10.686 10.686-10.686h38.269c5.902 0 10.686 4.784 10.686 10.686v38.269c.001 5.902-4.783 10.686-10.685 10.686z" fill="#fee265" />
            <path d="m109.706 363.959v38.267c0 5.899-4.787 10.686-10.686 10.686h-27.538c5.899 0 10.686-4.787 10.686-10.686v-38.267c0-5.899-4.787-10.686-10.686-10.686h27.538c5.899 0 10.686 4.787 10.686 10.686z" fill="#fdd330" />
          </g>
        </g>
      </g>
      <g>
        <g>
          <g>
            <g>
              <g>
                <g>
                  <circle cx="352.068" cy="315.706" fill="#5591d6" r="152.432" />
                  <path d="m504.496 315.705c.008 84.185-68.239 152.432-152.424 152.432-5.632 0-11.191-.308-16.66-.901 76.346-8.302 135.764-72.978 135.764-151.531s-59.426-143.23-135.772-151.531c5.469-.592 11.028-.901 16.66-.901 84.185 0 152.432 68.247 152.432 152.432z" fill="#1475cb" />
                  <circle cx="352.068" cy="315.706" fill="#f8f3f1" r="116.788" />
                  <path d="m468.857 315.705c0 64.497-52.288 116.786-116.793 116.786-4.76 0-9.459-.285-14.073-.84 57.865-6.948 102.712-56.209 102.712-115.946s-44.847-108.998-102.712-115.946c4.614-.555 9.313-.84 14.073-.84 64.505.001 116.793 52.289 116.793 116.786z" fill="#e5e1e5" />
                </g>
              </g>
            </g>
            <g>
              <g>
                <g>
                  <path d="m367.266 363.988-24.559-40.949 20.335-12.196 24.559 40.949c1.544 2.574.709 5.912-1.866 7.456l-11.013 6.605c-2.574 1.544-5.912.709-7.456-1.865z" fill="#fee265" />
                </g>
              </g>
            </g>
            <g>
              <circle cx="352.068" cy="315.706" fill="#fb9927" r="16.806" />
            </g>
          </g>
        </g>
      </g>
    </g>
    <g>
      <path d="m110.979 489.264h-93.589c-1.317 0-2.39-1.072-2.39-2.39v-461.748c0-1.318 1.072-2.39 2.39-2.39h302.577c1.317 0 2.39 1.072 2.39 2.39v48.124c0 4.142 3.357 7.5 7.5 7.5s7.5-3.358 7.5-7.5v-48.124c0-9.589-7.801-17.39-17.39-17.39h-302.577c-9.589 0-17.39 7.801-17.39 17.39v461.748c0 9.589 7.801 17.39 17.39 17.39h93.59c4.143 0 7.5-3.358 7.5-7.5s-3.358-7.5-7.501-7.5z" />
      <path d="m111.19 56.146-1.498 1.498c-3.002-2.188-6.685-3.495-10.676-3.495h-38.27c-10.027 0-18.186 8.158-18.186 18.186v38.27c0 10.028 8.158 18.186 18.186 18.186h38.27c10.028 0 18.187-8.158 18.187-18.186v-38.27c0-.317-.031-.626-.048-.94l4.642-4.642c2.929-2.929 2.929-7.678 0-10.606-2.929-2.93-7.677-2.93-10.607-.001zm-8.987 54.458c0 1.757-1.43 3.186-3.187 3.186h-38.27c-1.757 0-3.186-1.429-3.186-3.186v-38.27c0-1.757 1.429-3.186 3.186-3.186h37.441l-18.614 18.616-2.788-2.789c-2.93-2.929-7.678-2.929-10.607 0s-2.929 7.678 0 10.606l8.092 8.092c1.465 1.464 3.385 2.197 5.304 2.197s3.839-.732 5.304-2.197l17.326-17.326v24.257z" />
      <path d="m152.934 100.925h23.656c4.143 0 7.5-3.358 7.5-7.5s-3.357-7.5-7.5-7.5h-23.656c-4.143 0-7.5 3.358-7.5 7.5s3.357 7.5 7.5 7.5z" />
      <path d="m294.796 121.29c0-4.142-3.357-7.5-7.5-7.5h-134.362c-4.143 0-7.5 3.358-7.5 7.5s3.357 7.5 7.5 7.5h134.362c4.142 0 7.5-3.358 7.5-7.5z" />
      <path d="m111.19 153.354-1.498 1.498c-3.002-2.188-6.685-3.495-10.676-3.495h-38.27c-10.027 0-18.186 8.158-18.186 18.187v38.269c0 10.028 8.158 18.187 18.186 18.187h38.27c10.028 0 18.187-8.158 18.187-18.187v-38.269c0-.317-.031-.627-.048-.94l4.642-4.642c2.929-2.929 2.929-7.678 0-10.606-2.929-2.931-7.677-2.931-10.607-.002zm-8.987 54.458c0 1.757-1.43 3.187-3.187 3.187h-38.27c-1.757 0-3.186-1.43-3.186-3.187v-38.269c0-1.757 1.429-3.187 3.186-3.187h37.441l-18.615 18.615-2.789-2.788c-2.928-2.93-7.677-2.929-10.606 0s-2.929 7.678.001 10.606l8.092 8.091c1.464 1.465 3.384 2.197 5.303 2.197s3.839-.732 5.304-2.197l17.326-17.326z" />
      <path d="m152.934 183.133c-4.143 0-7.5 3.358-7.5 7.5s3.357 7.5 7.5 7.5h23.656c4.143 0 7.5-3.358 7.5-7.5s-3.357-7.5-7.5-7.5z" />
      <path d="m117.203 266.75c0-10.028-8.158-18.186-18.187-18.186h-38.27c-10.027 0-18.186 8.158-18.186 18.186v38.27c0 10.028 8.158 18.186 18.186 18.186h38.27c10.028 0 18.187-8.158 18.187-18.186zm-15 38.27c0 1.757-1.43 3.186-3.187 3.186h-38.27c-1.757 0-3.186-1.429-3.186-3.186v-38.27c0-1.757 1.429-3.186 3.186-3.186h38.27c1.757 0 3.187 1.429 3.187 3.186z" />
      <path d="m152.934 295.34h23.656c4.143 0 7.5-3.358 7.5-7.5s-3.357-7.5-7.5-7.5h-23.656c-4.143 0-7.5 3.358-7.5 7.5s3.357 7.5 7.5 7.5z" />
      <path d="m99.017 345.771h-38.27c-10.027 0-18.186 8.158-18.186 18.186v38.27c0 10.028 8.158 18.186 18.186 18.186h38.27c10.028 0 18.187-8.158 18.187-18.186v-38.27c-.001-10.027-8.159-18.186-18.187-18.186zm3.186 56.456c0 1.757-1.43 3.186-3.187 3.186h-38.27c-1.757 0-3.186-1.429-3.186-3.186v-38.27c0-1.757 1.429-3.186 3.186-3.186h38.27c1.757 0 3.187 1.429 3.187 3.186z" />
      <path d="m152.934 392.548h23.656c4.143 0 7.5-3.358 7.5-7.5s-3.357-7.5-7.5-7.5h-23.656c-4.143 0-7.5 3.358-7.5 7.5s3.357 7.5 7.5 7.5z" />
      <path d="m352.068 155.774c-4.96 0-9.865.239-14.712.683v-46.181c0-4.142-3.357-7.5-7.5-7.5s-7.5 3.358-7.5 7.5v48.276c-36.079 6.806-67.92 25.76-91.083 52.445h-78.34c-4.143 0-7.5 3.358-7.5 7.5s3.357 7.5 7.5 7.5h66.796c-16.09 23.661-26.004 51.842-27.413 82.208h-39.383c-4.143 0-7.5 3.358-7.5 7.5s3.357 7.5 7.5 7.5h39.379c1.363 29.725 10.82 57.975 27.307 82.208h-66.686c-4.143 0-7.5 3.358-7.5 7.5s3.357 7.5 7.5 7.5h78.237c2.493 2.87 5.093 5.667 7.808 8.382 23.08 23.08 51.975 38.226 83.378 44.093v13.986c0 1.318-1.072 2.39-2.39 2.39h-171.96c-4.143 0-7.5 3.358-7.5 7.5s3.357 7.5 7.5 7.5h171.961c9.589 0 17.39-7.801 17.39-17.39v-11.91c4.863.441 9.769.673 14.712.673 88.187 0 159.932-71.745 159.932-159.932-.001-88.186-71.746-159.931-159.933-159.931zm0 304.864c-38.713 0-75.108-15.075-102.483-42.449-27.374-27.374-42.449-63.77-42.449-102.482 0-79.916 65.017-144.932 144.933-144.932s144.931 65.015 144.931 144.931-65.016 144.932-144.932 144.932z" />
      <path d="m439.383 323.007h.034c4.126 0 7.48-3.336 7.499-7.467.019-4.142-3.325-7.515-7.467-7.533h-.111c-.012 0-.022 0-.034 0-4.126 0-7.48 3.336-7.499 7.467-.019 4.142 3.325 7.515 7.467 7.533z" />
      <path d="m264.72 308.007c-4.143 0-7.5 3.358-7.5 7.5s3.357 7.5 7.5 7.5h.111c4.143 0 7.5-3.358 7.5-7.5s-3.357-7.5-7.5-7.5z" />
      <path d="m351.818 235.771c4.143 0 7.5-3.358 7.5-7.5v-.112c0-4.142-3.357-7.5-7.5-7.5s-7.5 3.358-7.5 7.5v.112c0 4.142 3.358 7.5 7.5 7.5z" />
      <path d="m344.818 402.743v.112c0 4.142 3.357 7.5 7.5 7.5s7.5-3.358 7.5-7.5v-.112c0-4.142-3.357-7.5-7.5-7.5s-7.5 3.358-7.5 7.5z" />
      <path d="m301.733 243.826c1.389 2.411 3.911 3.759 6.507 3.759 1.27 0 2.557-.323 3.735-1.002 3.59-2.066 4.824-6.652 2.758-10.242l-.056-.097c-2.068-3.59-6.653-4.823-10.242-2.757-3.59 2.066-4.824 6.652-2.758 10.242z" />
      <path d="m280.133 265.604-.098-.056c-3.589-2.063-8.175-.828-10.24 2.763-2.064 3.591-.827 8.176 2.764 10.241l.098.056c1.178.677 2.463 1 3.731 1 2.597 0 5.121-1.35 6.509-3.763 2.064-3.592.827-8.176-2.764-10.241z" />
      <path d="m431.581 352.465-.097-.056c-3.587-2.066-8.174-.833-10.242 2.757-2.066 3.59-.832 8.175 2.758 10.242l.097.056c1.179.679 2.466 1.002 3.735 1.002 2.595 0 5.118-1.349 6.507-3.759 2.066-3.59.832-8.176-2.758-10.242z" />
      <path d="m399.687 233.479c-3.594-2.058-8.177-.814-10.236 2.78l-.056.097c-2.059 3.594-.814 8.177 2.779 10.236 1.176.673 2.457.994 3.722.994 2.601 0 5.129-1.355 6.515-3.773l.056-.097c2.057-3.596.813-8.178-2.78-10.237z" />
      <path d="m304.436 397.527c1.179.679 2.466 1.002 3.735 1.002 2.595 0 5.118-1.349 6.507-3.759l.056-.097c2.066-3.59.832-8.175-2.758-10.242-3.586-2.066-8.173-.833-10.242 2.757l-.056.097c-2.067 3.59-.832 8.176 2.758 10.242z" />
      <path d="m424.101 265.547-.098.056c-3.591 2.065-4.828 6.649-2.764 10.241 1.388 2.413 3.912 3.763 6.509 3.763 1.268 0 2.554-.322 3.731-1l.098-.056c3.591-2.065 4.828-6.649 2.764-10.241-2.066-3.59-6.651-4.827-10.24-2.763z" />
      <path d="m272.628 352.423-.097.056c-3.582 2.08-4.799 6.67-2.719 10.252 1.392 2.397 3.907 3.735 6.492 3.735 1.278 0 2.575-.328 3.76-1.016l.097-.056c3.582-2.08 4.799-6.67 2.719-10.252s-6.671-4.798-10.252-2.719z" />
      <path d="m402.402 387.189c-2.067-3.59-6.653-4.824-10.242-2.757-3.59 2.066-4.824 6.652-2.758 10.242l.056.097c1.389 2.411 3.911 3.759 6.507 3.759 1.27 0 2.557-.323 3.735-1.002 3.59-2.066 4.824-6.652 2.758-10.242z" />
      <path d="m352.068 191.417c-29.62 0-58.309 10.595-80.779 29.833-22.221 19.024-37.075 45.312-41.827 74.022-.677 4.086 2.088 7.948 6.175 8.624 4.091.672 7.948-2.088 8.624-6.175 4.176-25.233 17.239-48.345 36.783-65.077 19.756-16.913 44.979-26.228 71.024-26.228 60.262 0 109.288 49.027 109.288 109.289s-49.026 109.289-109.288 109.289c-26.276 0-51.672-9.46-71.508-26.639-19.64-17.008-32.607-40.435-36.516-65.966-.627-4.095-4.468-6.906-8.549-6.279-4.095.626-6.905 4.454-6.279 8.548 4.447 29.05 19.194 55.698 41.524 75.036 22.563 19.539 51.444 30.299 81.327 30.299 68.532 0 124.288-55.755 124.288-124.288s-55.754-124.288-124.287-124.288z" />
      <path d="m327.762 315.706c0 10.24 6.369 19.015 15.351 22.589l17.722 29.55c2.422 4.039 6.715 6.279 11.114 6.279 2.263 0 4.554-.593 6.631-1.839l11.012-6.604c2.964-1.777 5.058-4.601 5.896-7.953.839-3.353.322-6.831-1.455-9.793l-17.795-29.67c.088-.841.135-1.694.135-2.558 0-10.693-6.943-19.789-16.556-23.032v-40.451c0-4.142-3.357-7.5-7.5-7.5s-7.5 3.358-7.5 7.5v40.282c-9.871 3.09-17.055 12.321-17.055 23.2zm52.345 38.172-7.471 4.481-11.953-19.93c2.76-1.05 5.279-2.588 7.454-4.51zm-28.039-47.479c5.131 0 9.306 4.175 9.306 9.307 0 5.131-4.175 9.306-9.306 9.306-5.132 0-9.307-4.175-9.307-9.306.001-5.132 4.176-9.307 9.307-9.307z" />
    </g>
  </g>
</svg>